<?xml version="1.0" encoding="UTF-8" standalone="no"?>
<!-- Created with Inkscape (http://www.inkscape.org/) -->

<svg
   xmlns:dc="http://purl.org/dc/elements/1.1/"
   xmlns:cc="http://creativecommons.org/ns#"
   xmlns:rdf="http://www.w3.org/1999/02/22-rdf-syntax-ns#"
   xmlns:svg="http://www.w3.org/2000/svg"
   xmlns="http://www.w3.org/2000/svg"
   xmlns:sodipodi="http://sodipodi.sourceforge.net/DTD/sodipodi-0.dtd"
   xmlns:inkscape="http://www.inkscape.org/namespaces/inkscape"
   version="1.1"
   id="svg2"
   xml:space="preserve"
   width="581.91998"
   height="290.39999"
   viewBox="0 0 581.91998 290.39999"
   sodipodi:docname="main.svg"
   inkscape:version="0.92.4 (5da689c313, 2019-01-14)"><metadata
     id="metadata8"><rdf:RDF><cc:Work
         rdf:about=""><dc:format>image/svg+xml</dc:format><dc:type
           rdf:resource="http://purl.org/dc/dcmitype/StillImage" /><dc:title></dc:title></cc:Work></rdf:RDF></metadata><defs
     id="defs6"><clipPath
       clipPathUnits="userSpaceOnUse"
       id="clipPath30"><path
         d="m 55.56,517.32 h 220.56 v 217.8 H 55.56 Z"
         id="path28"
         inkscape:connector-curvature="0"
         style="clip-rule:evenodd" /></clipPath><clipPath
       clipPathUnits="userSpaceOnUse"
       id="clipPath42"><path
         d="m 55.56,517.32 h 220.56 v 217.8 H 55.56 Z"
         id="path40"
         inkscape:connector-curvature="0"
         style="clip-rule:evenodd" /></clipPath><clipPath
       clipPathUnits="userSpaceOnUse"
       id="clipPath54"><path
         d="m 55.56,517.32 h 220.56 v 217.8 H 55.56 Z"
         id="path52"
         inkscape:connector-curvature="0"
         style="clip-rule:evenodd" /></clipPath><clipPath
       clipPathUnits="userSpaceOnUse"
       id="clipPath66"><path
         d="m 55.56,517.32 h 220.56 v 217.8 H 55.56 Z"
         id="path64"
         inkscape:connector-curvature="0"
         style="clip-rule:evenodd" /></clipPath><clipPath
       clipPathUnits="userSpaceOnUse"
       id="clipPath78"><path
         d="m 55.56,517.32 h 220.56 v 217.8 H 55.56 Z"
         id="path76"
         inkscape:connector-curvature="0"
         style="clip-rule:evenodd" /></clipPath><clipPath
       clipPathUnits="userSpaceOnUse"
       id="clipPath90"><path
         d="m 55.56,517.32 h 220.56 v 217.8 H 55.56 Z"
         id="path88"
         inkscape:connector-curvature="0"
         style="clip-rule:evenodd" /></clipPath><clipPath
       clipPathUnits="userSpaceOnUse"
       id="clipPath102"><path
         d="m 55.56,517.32 h 220.56 v 217.8 H 55.56 Z"
         id="path100"
         inkscape:connector-curvature="0"
         style="clip-rule:evenodd" /></clipPath><clipPath
       clipPathUnits="userSpaceOnUse"
       id="clipPath114"><path
         d="m 55.56,517.32 h 220.56 v 217.8 H 55.56 Z"
         id="path112"
         inkscape:connector-curvature="0"
         style="clip-rule:evenodd" /></clipPath><clipPath
       clipPathUnits="userSpaceOnUse"
       id="clipPath126"><path
         d="m 55.56,517.32 h 220.56 v 217.8 H 55.56 Z"
         id="path124"
         inkscape:connector-curvature="0"
         style="clip-rule:evenodd" /></clipPath><clipPath
       clipPathUnits="userSpaceOnUse"
       id="clipPath138"><path
         d="m 55.56,517.32 h 220.56 v 217.8 H 55.56 Z"
         id="path136"
         inkscape:connector-curvature="0"
         style="clip-rule:evenodd" /></clipPath><clipPath
       clipPathUnits="userSpaceOnUse"
       id="clipPath150"><path
         d="m 55.56,517.32 h 220.56 v 217.8 H 55.56 Z"
         id="path148"
         inkscape:connector-curvature="0"
         style="clip-rule:evenodd" /></clipPath><clipPath
       clipPathUnits="userSpaceOnUse"
       id="clipPath162"><path
         d="m 55.56,517.32 h 220.56 v 217.8 H 55.56 Z"
         id="path160"
         inkscape:connector-curvature="0"
         style="clip-rule:evenodd" /></clipPath><clipPath
       clipPathUnits="userSpaceOnUse"
       id="clipPath174"><path
         d="m 55.56,517.32 h 220.56 v 217.8 H 55.56 Z"
         id="path172"
         inkscape:connector-curvature="0"
         style="clip-rule:evenodd" /></clipPath><clipPath
       clipPathUnits="userSpaceOnUse"
       id="clipPath186"><path
         d="m 55.56,517.32 h 220.68 v 217.8 H 55.56 Z"
         id="path184"
         inkscape:connector-curvature="0"
         style="clip-rule:evenodd" /></clipPath><clipPath
       clipPathUnits="userSpaceOnUse"
       id="clipPath210"><path
         d="m 273,517.32 h 219 v 217.8 H 273 Z"
         id="path208"
         inkscape:connector-curvature="0"
         style="clip-rule:evenodd" /></clipPath><clipPath
       clipPathUnits="userSpaceOnUse"
       id="clipPath222"><path
         d="m 273,517.32 h 219 v 217.8 H 273 Z"
         id="path220"
         inkscape:connector-curvature="0"
         style="clip-rule:evenodd" /></clipPath><clipPath
       clipPathUnits="userSpaceOnUse"
       id="clipPath234"><path
         d="m 273,517.32 h 219 v 217.8 H 273 Z"
         id="path232"
         inkscape:connector-curvature="0"
         style="clip-rule:evenodd" /></clipPath><clipPath
       clipPathUnits="userSpaceOnUse"
       id="clipPath246"><path
         d="m 273,517.32 h 219 v 217.8 H 273 Z"
         id="path244"
         inkscape:connector-curvature="0"
         style="clip-rule:evenodd" /></clipPath><clipPath
       clipPathUnits="userSpaceOnUse"
       id="clipPath258"><path
         d="m 273,517.32 h 219 v 217.8 H 273 Z"
         id="path256"
         inkscape:connector-curvature="0"
         style="clip-rule:evenodd" /></clipPath><clipPath
       clipPathUnits="userSpaceOnUse"
       id="clipPath270"><path
         d="m 273,517.32 h 219 v 217.8 H 273 Z"
         id="path268"
         inkscape:connector-curvature="0"
         style="clip-rule:evenodd" /></clipPath><clipPath
       clipPathUnits="userSpaceOnUse"
       id="clipPath282"><path
         d="m 273,517.32 h 219 v 217.8 H 273 Z"
         id="path280"
         inkscape:connector-curvature="0"
         style="clip-rule:evenodd" /></clipPath><clipPath
       clipPathUnits="userSpaceOnUse"
       id="clipPath294"><path
         d="m 273,517.32 h 219 v 217.8 H 273 Z"
         id="path292"
         inkscape:connector-curvature="0"
         style="clip-rule:evenodd" /></clipPath><clipPath
       clipPathUnits="userSpaceOnUse"
       id="clipPath306"><path
         d="m 273,517.32 h 219 v 217.8 H 273 Z"
         id="path304"
         inkscape:connector-curvature="0"
         style="clip-rule:evenodd" /></clipPath><clipPath
       clipPathUnits="userSpaceOnUse"
       id="clipPath318"><path
         d="m 273,517.32 h 219 v 217.8 H 273 Z"
         id="path316"
         inkscape:connector-curvature="0"
         style="clip-rule:evenodd" /></clipPath><clipPath
       clipPathUnits="userSpaceOnUse"
       id="clipPath330"><path
         d="m 273,517.32 h 219 v 217.8 H 273 Z"
         id="path328"
         inkscape:connector-curvature="0"
         style="clip-rule:evenodd" /></clipPath><clipPath
       clipPathUnits="userSpaceOnUse"
       id="clipPath342"><path
         d="m 273,517.32 h 219 v 217.8 H 273 Z"
         id="path340"
         inkscape:connector-curvature="0"
         style="clip-rule:evenodd" /></clipPath><clipPath
       clipPathUnits="userSpaceOnUse"
       id="clipPath354"><path
         d="m 273,517.32 h 219 v 217.8 H 273 Z"
         id="path352"
         inkscape:connector-curvature="0"
         style="clip-rule:evenodd" /></clipPath><clipPath
       clipPathUnits="userSpaceOnUse"
       id="clipPath366"><path
         d="M 50.4,504.72 H 539.76 V 738 H 50.4 Z"
         id="path364"
         inkscape:connector-curvature="0"
         style="clip-rule:evenodd" /></clipPath><clipPath
       clipPathUnits="userSpaceOnUse"
       id="clipPath378"><path
         d="M 50.4,504.72 H 539.76 V 738 H 50.4 Z"
         id="path376"
         inkscape:connector-curvature="0"
         style="clip-rule:evenodd" /></clipPath><clipPath
       clipPathUnits="userSpaceOnUse"
       id="clipPath390"><path
         d="M 50.4,504.72 H 539.76 V 738 H 50.4 Z"
         id="path388"
         inkscape:connector-curvature="0"
         style="clip-rule:evenodd" /></clipPath><clipPath
       clipPathUnits="userSpaceOnUse"
       id="clipPath402"><path
         d="M 50.4,504.72 H 539.76 V 738 H 50.4 Z"
         id="path400"
         inkscape:connector-curvature="0"
         style="clip-rule:evenodd" /></clipPath><clipPath
       clipPathUnits="userSpaceOnUse"
       id="clipPath414"><path
         d="M 50.4,504.72 H 539.76 V 738 H 50.4 Z"
         id="path412"
         inkscape:connector-curvature="0"
         style="clip-rule:evenodd" /></clipPath><clipPath
       clipPathUnits="userSpaceOnUse"
       id="clipPath426"><path
         d="M 50.4,504.72 H 539.76 V 738 H 50.4 Z"
         id="path424"
         inkscape:connector-curvature="0"
         style="clip-rule:evenodd" /></clipPath><clipPath
       clipPathUnits="userSpaceOnUse"
       id="clipPath438"><path
         d="M 50.4,504.72 H 539.76 V 738 H 50.4 Z"
         id="path436"
         inkscape:connector-curvature="0"
         style="clip-rule:evenodd" /></clipPath><clipPath
       clipPathUnits="userSpaceOnUse"
       id="clipPath450"><path
         d="M 50.4,504.72 H 539.76 V 738 H 50.4 Z"
         id="path448"
         inkscape:connector-curvature="0"
         style="clip-rule:evenodd" /></clipPath><clipPath
       clipPathUnits="userSpaceOnUse"
       id="clipPath462"><path
         d="M 50.4,504.72 H 539.76 V 738 H 50.4 Z"
         id="path460"
         inkscape:connector-curvature="0"
         style="clip-rule:evenodd" /></clipPath><clipPath
       clipPathUnits="userSpaceOnUse"
       id="clipPath474"><path
         d="M 50.4,504.72 H 539.76 V 738 H 50.4 Z"
         id="path472"
         inkscape:connector-curvature="0"
         style="clip-rule:evenodd" /></clipPath><clipPath
       clipPathUnits="userSpaceOnUse"
       id="clipPath486"><path
         d="M 50.4,504.72 H 539.76 V 738 H 50.4 Z"
         id="path484"
         inkscape:connector-curvature="0"
         style="clip-rule:evenodd" /></clipPath></defs><sodipodi:namedview
     pagecolor="#ffffff"
     bordercolor="#666666"
     borderopacity="1"
     objecttolerance="10"
     gridtolerance="10"
     guidetolerance="10"
     inkscape:pageopacity="0"
     inkscape:pageshadow="2"
     inkscape:window-width="1920"
     inkscape:window-height="1217"
     id="namedview4"
     showgrid="false"
     inkscape:pagecheckerboard="true"
     inkscape:zoom="1"
     inkscape:cx="333.77334"
     inkscape:cy="-161.75998"
     inkscape:window-x="-8"
     inkscape:window-y="-8"
     inkscape:window-maximized="1"
     inkscape:current-layer="g10" /><g
     id="g10"
     inkscape:groupmode="layer"
     inkscape:label="main"
     transform="matrix(1.3333333,0,0,-1.3333333,-74.226665,980.15998)"><path
       d="m 55.67,517.32 h 220.56 v 217.8 H 55.67 Z"
       style="fill:#ffffff;fill-opacity:1;fill-rule:evenodd;stroke:none"
       id="path12"
       inkscape:connector-curvature="0" /><path
       d="M 82.921,565.2 H 269.8 M 82.921,593.4 H 269.8 M 82.921,621.6 H 269.8 M 82.921,649.8 H 269.8 M 82.921,678.06 H 269.8"
       style="fill:none;stroke:#d9d9d9;stroke-width:0.75;stroke-linecap:butt;stroke-linejoin:round;stroke-miterlimit:10;stroke-dasharray:none;stroke-opacity:1"
       id="path14"
       inkscape:connector-curvature="0" /><path
       d="M 82.921,537.01 H 269.8"
       style="fill:none;stroke:#000000;stroke-width:0.75;stroke-linecap:butt;stroke-linejoin:round;stroke-miterlimit:10;stroke-dasharray:none;stroke-opacity:1"
       id="path16"
       inkscape:connector-curvature="0" /><path
       d="m 82.921,537.01 v -3.02 m 35.639,3.02 v -3.02 m 35.52,3.02 v -3.02 m 35.64,3.02 v -3.02 m 35.64,3.02 v -3.02 m 35.54,3.02 v -3.02"
       style="fill:none;stroke:#000000;stroke-width:0.75;stroke-linecap:butt;stroke-linejoin:round;stroke-miterlimit:10;stroke-dasharray:none;stroke-opacity:1"
       id="path18"
       inkscape:connector-curvature="0" /><path
       d="m 84.404,621.24 2.956,1.56 3,-2.64 3,3.6 h 2.88 l 3,-1.68 3,-2.76 2.88,1.92 3,-8.76 3,10.2 3,3.48 2.88,-0.96 3,-4.68 3,2.52 2.88,-4.08 3,0.36 3,3.24 3,1.2 2.88,-3.72 3,1.56 3,6.36 2.88,-6.84 3,5.76 3,-2.16 3,-0.6 2.88,-0.6 3,-0.24 3,-10.56 3,7.32 2.88,-2.28 3,7.2 3,3.57 2.88,-5.73 3,-4.2 3,8.64 3,-2.4 2.88,1.44 3,-3.6 3,-4.2 2.88,-23.51 3,16.19 3,3.72 3,3.84 2.88,0.12 3,-2.04 3,7.44 2.88,-4.8 3,-4.56 3,-4.92 3,0.24 2.88,-4.08 3,7.92 3,-4.92 2.88,17.76 3,-9.12 3,-2.4 3,0.96 2.88,3.96 3,4.44 3,0.12 3,-5.52 2.88,2.52 2.99,4.56"
       style="fill:none;stroke:#5d9732;stroke-width:2.25;stroke-linecap:round;stroke-linejoin:round;stroke-miterlimit:10;stroke-dasharray:none;stroke-opacity:1"
       id="path20"
       inkscape:connector-curvature="0" /><path
       d="m 84.404,565.68 h 2.956 l 3,-2.16 3,2.64 2.88,-1.56 3,-1.68 3,-0.12 2.88,-0.24 3,-5.52 3,3.96 3,2.52 2.88,-2.76 3,0.36 3,-1.56 2.88,1.2 3,4.32 3,-0.48 3,-2.76 2.88,1.56 3,1.44 3,-1.56 2.88,0.24 3,1.08 3,2.88 3,3.12 2.88,-7.8 3,11.06 3,-3.86 3,3.72 2.88,-8.64 3,-3.72 3,5.76 2.88,-6.72 3,3.48 3,-2.52 3,1.32 2.88,-0.96 3,0.72 3,-1.32 2.88,-7.52 3,4.4 3,4.68 3,-0.96 2.88,-4.68 3,5.64 3,3 2.88,-0.48 3,0.6 3,-0.72 3,-4.68 2.88,1.56 3,3.24 3,0.48 2.88,3.36 3,-2.04 3,-0.72 3,-1.2 2.88,-6.36 3,7.68 3,-0.36 3,-0.96 2.88,-5.76 2.99,-2.28"
       style="fill:none;stroke:#9bd174;stroke-width:2.25;stroke-linecap:round;stroke-linejoin:round;stroke-miterlimit:10;stroke-dasharray:none;stroke-opacity:1"
       id="path22"
       inkscape:connector-curvature="0" /><g
       id="g24"><g
         id="g26"
         clip-path="url(#clipPath30)"><text
           transform="matrix(1,0,0,-1,60.432,533.86)"
           style="font-variant:normal;font-weight:normal;font-size:9.96000004px;font-family:Arial;-inkscape-font-specification:ArialMT;writing-mode:lr-tb;fill:#000000;fill-opacity:1;fill-rule:nonzero;stroke:none"
           id="text34"><tspan
             x="0 5.5377598 8.3863201"
             y="0"
             sodipodi:role="line"
             id="tspan32">0.0</tspan></text>
</g></g><g
       id="g36"><g
         id="g38"
         clip-path="url(#clipPath42)"><text
           transform="matrix(1,0,0,-1,60.432,562.06)"
           style="font-variant:normal;font-weight:normal;font-size:9.96000004px;font-family:Arial;-inkscape-font-specification:ArialMT;writing-mode:lr-tb;fill:#000000;fill-opacity:1;fill-rule:nonzero;stroke:none"
           id="text46"><tspan
             x="0 5.5377598 8.3863201"
             y="0"
             sodipodi:role="line"
             id="tspan44">0.5</tspan></text>
</g></g><g
       id="g48"><g
         id="g50"
         clip-path="url(#clipPath54)"><text
           transform="matrix(1,0,0,-1,60.432,590.28)"
           style="font-variant:normal;font-weight:normal;font-size:9.96000004px;font-family:Arial;-inkscape-font-specification:ArialMT;writing-mode:lr-tb;fill:#000000;fill-opacity:1;fill-rule:nonzero;stroke:none"
           id="text58"><tspan
             x="0 5.5377598 8.3863201"
             y="0"
             sodipodi:role="line"
             id="tspan56">1.0</tspan></text>
</g></g><g
       id="g60"><g
         id="g62"
         clip-path="url(#clipPath66)"><text
           transform="matrix(1,0,0,-1,60.432,618.5)"
           style="font-variant:normal;font-weight:normal;font-size:9.98400021px;font-family:Arial;-inkscape-font-specification:ArialMT;writing-mode:lr-tb;fill:#000000;fill-opacity:1;fill-rule:nonzero;stroke:none"
           id="text70"><tspan
             x="0 5.521152 8.3865604"
             y="0"
             sodipodi:role="line"
             id="tspan68">1.5</tspan></text>
</g></g><g
       id="g72"><g
         id="g74"
         clip-path="url(#clipPath78)"><text
           transform="matrix(1,0,0,-1,60.432,646.7)"
           style="font-variant:normal;font-weight:normal;font-size:9.96000004px;font-family:Arial;-inkscape-font-specification:ArialMT;writing-mode:lr-tb;fill:#000000;fill-opacity:1;fill-rule:nonzero;stroke:none"
           id="text82"><tspan
             x="0 5.5377598 8.3863201"
             y="0"
             sodipodi:role="line"
             id="tspan80">2.0</tspan></text>
</g></g><g
       id="g84"><g
         id="g86"
         clip-path="url(#clipPath90)"><text
           transform="matrix(1,0,0,-1,60.432,674.93)"
           style="font-variant:normal;font-weight:normal;font-size:9.96000004px;font-family:Arial;-inkscape-font-specification:ArialMT;writing-mode:lr-tb;fill:#000000;fill-opacity:1;fill-rule:nonzero;stroke:none"
           id="text94"><tspan
             x="0 5.5377598 8.3863201"
             y="0"
             sodipodi:role="line"
             id="tspan92">2.5</tspan></text>
</g></g><g
       id="g96"><g
         id="g98"
         clip-path="url(#clipPath102)"><text
           transform="matrix(1,0,0,-1,73.296,521.93)"
           style="font-variant:normal;font-weight:normal;font-size:9.96000004px;font-family:Arial;-inkscape-font-specification:ArialMT;writing-mode:lr-tb;fill:#000000;fill-opacity:1;fill-rule:nonzero;stroke:none"
           id="text106"><tspan
             x="0 5.5377598 11.14524 16.683001"
             y="0"
             sodipodi:role="line"
             id="tspan104">2017</tspan></text>
</g></g><g
       id="g108"><g
         id="g110"
         clip-path="url(#clipPath114)"><text
           transform="matrix(1,0,0,-1,108.91,521.93)"
           style="font-variant:normal;font-weight:normal;font-size:9.96000004px;font-family:Arial;-inkscape-font-specification:ArialMT;writing-mode:lr-tb;fill:#000000;fill-opacity:1;fill-rule:nonzero;stroke:none"
           id="text118"><tspan
             x="0 5.5377598 11.14524 16.683001"
             y="0"
             sodipodi:role="line"
             id="tspan116">2018</tspan></text>
</g></g><g
       id="g120"><g
         id="g122"
         clip-path="url(#clipPath126)"><text
           transform="matrix(1,0,0,-1,144.5,521.93)"
           style="font-variant:normal;font-weight:normal;font-size:9.96000004px;font-family:Arial;-inkscape-font-specification:ArialMT;writing-mode:lr-tb;fill:#000000;fill-opacity:1;fill-rule:nonzero;stroke:none"
           id="text130"><tspan
             x="0 5.5377598 11.14524 16.683001"
             y="0"
             sodipodi:role="line"
             id="tspan128">2019</tspan></text>
</g></g><g
       id="g132"><g
         id="g134"
         clip-path="url(#clipPath138)"><text
           transform="matrix(1,0,0,-1,180.1,521.93)"
           style="font-variant:normal;font-weight:normal;font-size:9.96000004px;font-family:Arial;-inkscape-font-specification:ArialMT;writing-mode:lr-tb;fill:#000000;fill-opacity:1;fill-rule:nonzero;stroke:none"
           id="text142"><tspan
             x="0 5.5377598 11.14524 16.683001"
             y="0"
             sodipodi:role="line"
             id="tspan140">2020</tspan></text>
</g></g><g
       id="g144"><g
         id="g146"
         clip-path="url(#clipPath150)"><text
           transform="matrix(1,0,0,-1,215.71,521.93)"
           style="font-variant:normal;font-weight:normal;font-size:9.96000004px;font-family:Arial;-inkscape-font-specification:ArialMT;writing-mode:lr-tb;fill:#000000;fill-opacity:1;fill-rule:nonzero;stroke:none"
           id="text154"><tspan
             x="0 5.5377598 11.14524 16.683001"
             y="0"
             sodipodi:role="line"
             id="tspan152">2021</tspan></text>
</g></g><g
       id="g156"><g
         id="g158"
         clip-path="url(#clipPath162)"><text
           transform="matrix(1,0,0,-1,251.3,521.93)"
           style="font-variant:normal;font-weight:normal;font-size:9.96000004px;font-family:Arial;-inkscape-font-specification:ArialMT;writing-mode:lr-tb;fill:#000000;fill-opacity:1;fill-rule:nonzero;stroke:none"
           id="text166"><tspan
             x="0 5.5377598 11.14524 16.683001"
             y="0"
             sodipodi:role="line"
             id="tspan164">2022</tspan></text>
</g></g><g
       id="g168"><g
         id="g170"
         clip-path="url(#clipPath174)"><text
           transform="matrix(-4.4e-8,1,1,4.4e-8,54.696,631.32)"
           style="font-variant:normal;font-weight:normal;font-size:9.96000004px;font-family:Calibri;-inkscape-font-specification:Calibri;writing-mode:lr-tb;fill:#595959;fill-opacity:1;fill-rule:nonzero;stroke:none"
           id="text178"><tspan
             x="0 4.8007202 10.06956 15.3384 20.607241 24.451799 29.222639 34.521358 39.790199"
             y="0"
             sodipodi:role="line"
             id="tspan176">Thousands</tspan></text>
</g></g><g
       id="g180"><g
         id="g182"
         clip-path="url(#clipPath186)"><text
           transform="matrix(1,0,0,-1,76.368,688.46)"
           style="font-variant:normal;font-weight:bold;font-size:9.96000004px;font-family:Arial;-inkscape-font-specification:Arial-BoldMT;writing-mode:lr-tb;fill:#5d9732;fill-opacity:1;fill-rule:nonzero;stroke:none"
           id="text190"><tspan
             x="0 6.1054802 11.64324 17.141159 23.246639 26.01552 28.784401 34.869961"
             y="0"
             sodipodi:role="line"
             id="tspan188">gasoline</tspan></text>
</g></g><path
       d="m 273.11,517.32 h 219 v 217.8 h -219 z"
       style="fill:#ffffff;fill-opacity:1;fill-rule:evenodd;stroke:none"
       id="path192"
       inkscape:connector-curvature="0" /><path
       d="M 300.17,566.16 H 485.72 M 300.17,595.32 H 485.72 M 300.17,624.48 H 485.72 M 300.17,653.64 H 485.72 M 300.17,682.85 H 485.72"
       style="fill:none;stroke:#d9d9d9;stroke-width:0.75;stroke-linecap:butt;stroke-linejoin:round;stroke-miterlimit:10;stroke-dasharray:none;stroke-opacity:1"
       id="path194"
       inkscape:connector-curvature="0" /><path
       d="M 300.17,537.02 H 485.72"
       style="fill:none;stroke:#bfbfbf;stroke-width:0.75;stroke-linecap:butt;stroke-linejoin:round;stroke-miterlimit:10;stroke-dasharray:none;stroke-opacity:1"
       id="path196"
       inkscape:connector-curvature="0" /><path
       d="M 300.17,537.02 V 534 m 35.35,3.02 V 534 m 35.28,3.02 V 534 m 35.4,3.02 V 534 m 35.4,3.02 V 534 m 35.29,3.02 V 534"
       style="fill:none;stroke:#bfbfbf;stroke-width:0.75;stroke-linecap:butt;stroke-linejoin:round;stroke-miterlimit:10;stroke-dasharray:none;stroke-opacity:1"
       id="path198"
       inkscape:connector-curvature="0" /><path
       d="m 301.64,583.44 2.92,-3.24 3,-1.8 2.88,-0.72 3,-0.48 2.88,-0.72 3,-0.96 2.88,-2.76 3,-4.75 3,5.83 2.88,10.68 3,-1.32 2.88,1.56 3,0.72 2.88,-9.12 3,0.72 2.88,-1.44 3,0.36 2.88,0.6 3,-0.6 3,1.8 2.88,0.12 3,4.68 2.88,3.36 3,-0.24 2.88,-2.04 3,0.12 2.88,-6.48 3,2.04 2.88,3 3,-4.68 h 3 l 2.88,-7.92 3,1.56 2.88,15 3,-0.84 2.88,-0.72 3,1.32 2.88,-4.68 3,9.6 2.88,7.51 3,-16.27 3,-5.16 2.88,-3.6 3,-0.72 2.88,5.4 3,-3.72 2.88,-0.24 3,-1.44 2.88,3.84 3,-7.8 2.88,4.08 3,-4.56 3,9.6 2.88,-4.08 3,6 2.88,-7.92 3,4.32 2.88,12.12 3,-3.24 2.88,-2.52 3,3.24 2.93,-7.56"
       style="fill:none;stroke:#bd732a;stroke-width:2.25;stroke-linecap:round;stroke-linejoin:round;stroke-miterlimit:10;stroke-dasharray:none;stroke-opacity:1"
       id="path200"
       inkscape:connector-curvature="0" /><path
       d="m 301.64,542.64 2.92,-0.12 3,0.6 2.88,-1.23 3,0.63 2.88,0.6 3,-0.24 2.88,0.12 3,-0.24 3,0.36 2.88,0.6 3,1.8 2.88,-0.12 3,-1.44 2.88,-0.6 3,0.36 2.88,0.72 3,-1.08 2.88,0.72 3,-0.36 3,-0.72 2.88,0.36 3,1.2 2.88,0.6 3,0.72 2.88,-2.52 3,0.96 2.88,-0.48 3,0.6 2.88,0.72 3,-1.68 3,-0.24 2.88,0.72 3,0.12 2.88,2.64 3,-2.64 h 2.88 l 3,0.12 2.88,0.12 3,2.88 2.88,-0.6 3,-1.56 3,-1.2 2.88,0.36 3,0.24 2.88,0.96 3,-1.68 2.88,0.6 3,-1.08 2.88,0.84 3,-0.96 2.88,1.92 3,-0.24 3,0.84 2.88,-0.24 3,-0.36 2.88,0.36 3,-0.6 2.88,-0.96 3,0.36 2.88,2.52 3,-1.2 2.93,0.36"
       style="fill:none;stroke:#e1ab76;stroke-width:2.25;stroke-linecap:round;stroke-linejoin:round;stroke-miterlimit:10;stroke-dasharray:none;stroke-opacity:1"
       id="path202"
       inkscape:connector-curvature="0" /><g
       id="g204"><g
         id="g206"
         clip-path="url(#clipPath210)"><text
           transform="matrix(1,0,0,-1,277.7,533.86)"
           style="font-variant:normal;font-weight:normal;font-size:9.96000004px;font-family:Arial;-inkscape-font-specification:ArialMT;writing-mode:lr-tb;fill:#000000;fill-opacity:1;fill-rule:nonzero;stroke:none"
           id="text214"><tspan
             x="0 5.5377598 8.4161997"
             y="0"
             sodipodi:role="line"
             id="tspan212">0.0</tspan></text>
</g></g><g
       id="g216"><g
         id="g218"
         clip-path="url(#clipPath222)"><text
           transform="matrix(1,0,0,-1,277.7,563.04)"
           style="font-variant:normal;font-weight:normal;font-size:9.96000004px;font-family:Arial;-inkscape-font-specification:ArialMT;writing-mode:lr-tb;fill:#000000;fill-opacity:1;fill-rule:nonzero;stroke:none"
           id="text226"><tspan
             x="0 5.5377598 8.4161997"
             y="0"
             sodipodi:role="line"
             id="tspan224">0.5</tspan></text>
</g></g><g
       id="g228"><g
         id="g230"
         clip-path="url(#clipPath234)"><text
           transform="matrix(1,0,0,-1,277.7,592.2)"
           style="font-variant:normal;font-weight:normal;font-size:9.96000004px;font-family:Arial;-inkscape-font-specification:ArialMT;writing-mode:lr-tb;fill:#000000;fill-opacity:1;fill-rule:nonzero;stroke:none"
           id="text238"><tspan
             x="0 5.5377598 8.4161997"
             y="0"
             sodipodi:role="line"
             id="tspan236">1.0</tspan></text>
</g></g><g
       id="g240"><g
         id="g242"
         clip-path="url(#clipPath246)"><text
           transform="matrix(1,0,0,-1,277.7,621.38)"
           style="font-variant:normal;font-weight:normal;font-size:9.98400021px;font-family:Arial;-inkscape-font-specification:ArialMT;writing-mode:lr-tb;fill:#000000;fill-opacity:1;fill-rule:nonzero;stroke:none"
           id="text250"><tspan
             x="0 5.5511041 8.4165115"
             y="0"
             sodipodi:role="line"
             id="tspan248">1.5</tspan></text>
</g></g><g
       id="g252"><g
         id="g254"
         clip-path="url(#clipPath258)"><text
           transform="matrix(1,0,0,-1,277.7,650.54)"
           style="font-variant:normal;font-weight:normal;font-size:9.96000004px;font-family:Arial;-inkscape-font-specification:ArialMT;writing-mode:lr-tb;fill:#000000;fill-opacity:1;fill-rule:nonzero;stroke:none"
           id="text262"><tspan
             x="0 5.5377598 8.4161997"
             y="0"
             sodipodi:role="line"
             id="tspan260">2.0</tspan></text>
</g></g><g
       id="g264"><g
         id="g266"
         clip-path="url(#clipPath270)"><text
           transform="matrix(1,0,0,-1,277.7,679.7)"
           style="font-variant:normal;font-weight:normal;font-size:9.96000004px;font-family:Arial;-inkscape-font-specification:ArialMT;writing-mode:lr-tb;fill:#000000;fill-opacity:1;fill-rule:nonzero;stroke:none"
           id="text274"><tspan
             x="0 5.5377598 8.4161997"
             y="0"
             sodipodi:role="line"
             id="tspan272">2.5</tspan></text>
</g></g><g
       id="g276"><g
         id="g278"
         clip-path="url(#clipPath282)"><text
           transform="matrix(1,0,0,-1,290.57,521.95)"
           style="font-variant:normal;font-weight:normal;font-size:9.96000004px;font-family:Arial;-inkscape-font-specification:ArialMT;writing-mode:lr-tb;fill:#000000;fill-opacity:1;fill-rule:nonzero;stroke:none"
           id="text286"><tspan
             x="0 5.5377598 11.14524 16.683001"
             y="0"
             sodipodi:role="line"
             id="tspan284">2017</tspan></text>
</g></g><g
       id="g288"><g
         id="g290"
         clip-path="url(#clipPath294)"><text
           transform="matrix(1,0,0,-1,325.92,521.95)"
           style="font-variant:normal;font-weight:normal;font-size:9.96000004px;font-family:Arial;-inkscape-font-specification:ArialMT;writing-mode:lr-tb;fill:#000000;fill-opacity:1;fill-rule:nonzero;stroke:none"
           id="text298"><tspan
             x="0 5.5377598 11.14524 16.683001"
             y="0"
             sodipodi:role="line"
             id="tspan296">2018</tspan></text>
</g></g><g
       id="g300"><g
         id="g302"
         clip-path="url(#clipPath306)"><text
           transform="matrix(1,0,0,-1,361.27,521.95)"
           style="font-variant:normal;font-weight:normal;font-size:9.96000004px;font-family:Arial;-inkscape-font-specification:ArialMT;writing-mode:lr-tb;fill:#000000;fill-opacity:1;fill-rule:nonzero;stroke:none"
           id="text310"><tspan
             x="0 5.5377598 11.14524 16.683001"
             y="0"
             sodipodi:role="line"
             id="tspan308">2019</tspan></text>
</g></g><g
       id="g312"><g
         id="g314"
         clip-path="url(#clipPath318)"><text
           transform="matrix(1,0,0,-1,396.62,521.95)"
           style="font-variant:normal;font-weight:normal;font-size:9.96000004px;font-family:Arial;-inkscape-font-specification:ArialMT;writing-mode:lr-tb;fill:#000000;fill-opacity:1;fill-rule:nonzero;stroke:none"
           id="text322"><tspan
             x="0 5.5377598 11.14524 16.683001"
             y="0"
             sodipodi:role="line"
             id="tspan320">2020</tspan></text>
</g></g><g
       id="g324"><g
         id="g326"
         clip-path="url(#clipPath330)"><text
           transform="matrix(1,0,0,-1,431.98,521.95)"
           style="font-variant:normal;font-weight:normal;font-size:9.96000004px;font-family:Arial;-inkscape-font-specification:ArialMT;writing-mode:lr-tb;fill:#000000;fill-opacity:1;fill-rule:nonzero;stroke:none"
           id="text334"><tspan
             x="0 5.5377598 11.14524 16.683001"
             y="0"
             sodipodi:role="line"
             id="tspan332">2021</tspan></text>
</g></g><g
       id="g336"><g
         id="g338"
         clip-path="url(#clipPath342)"><text
           transform="matrix(1,0,0,-1,467.33,521.95)"
           style="font-variant:normal;font-weight:normal;font-size:9.96000004px;font-family:Arial;-inkscape-font-specification:ArialMT;writing-mode:lr-tb;fill:#000000;fill-opacity:1;fill-rule:nonzero;stroke:none"
           id="text346"><tspan
             x="0 5.5377598 11.14524 16.683001"
             y="0"
             sodipodi:role="line"
             id="tspan344">2022</tspan></text>
</g></g><g
       id="g348"><g
         id="g350"
         clip-path="url(#clipPath354)"><text
           transform="matrix(1,0,0,-1,293.33,690.96)"
           style="font-variant:normal;font-weight:bold;font-size:9.96000004px;font-family:Arial;-inkscape-font-specification:Arial-BoldMT;writing-mode:lr-tb;fill:#bd732a;fill-opacity:1;fill-rule:nonzero;stroke:none"
           id="text358"><tspan
             x="0 6.1054802 8.8743601 14.41212 17.7288 20.497681 23.26656 26.03544 31.5732 34.889881"
             y="0"
             sodipodi:role="line"
             id="tspan356">distillate</tspan></text>
</g></g><g
       id="g360"><g
         id="g362"
         clip-path="url(#clipPath366)"><text
           transform="matrix(1,0,0,-1,57.6,725.04)"
           style="font-variant:normal;font-weight:bold;font-size:9.96000004px;font-family:Arial;-inkscape-font-specification:Arial-BoldMT;writing-mode:lr-tb;fill:#000000;fill-opacity:1;fill-rule:nonzero;stroke:none"
           id="text370"><tspan
             x="0 8.5357199 14.67108 20.32836 25.866119 34.770359 40.308121 46.443481 49.790039 52.309921 58.445278 61.79184 64.560722 70.686119 76.223877 81.761642 87.90696 90.675842 93.444717 99.560158 105.09792 107.97636 113.51412 119.64948 125.78484 128.65332 134.78868 137.55756 143.09532 146.44188 149.21075 151.97964 154.74852 160.28629 163.60297 169.14072 172.03908 175.38564 179.23019 185.36555 194.25984 197.02872 204.83736 210.97272 213.74159"
             y="0"
             sodipodi:role="line"
             id="tspan368">Movement of gasoline and distillate from Gulf</tspan></text>
</g></g><g
       id="g372"><g
         id="g374"
         clip-path="url(#clipPath378)"><text
           transform="matrix(1,0,0,-1,277.13,725.04)"
           style="font-variant:normal;font-weight:bold;font-size:9.96000004px;font-family:Arial;-inkscape-font-specification:Arial-BoldMT;writing-mode:lr-tb;fill:#000000;fill-opacity:1;fill-rule:nonzero;stroke:none"
           id="text382"><tspan
             x="0 7.1911201 13.30656 18.84432 24.342239 27.688801 30.55728 33.903839 40.009319 42.778198 49.371719 54.909481 60.407398 63.75396 66.622437 73.81356 79.929001 85.466759 90.964684 94.311241 97.080116 100.41672 105.95448 111.4524 117.55788 120.42636 125.96412 131.46204 136.9998"
             y="0"
             sodipodi:role="line"
             id="tspan380">Coast to East Coast (Jan 2017</tspan></text>
</g></g><g
       id="g384"><g
         id="g386"
         clip-path="url(#clipPath390)"><text
           transform="matrix(1,0,0,-1,419.83,725.04)"
           style="font-variant:normal;font-weight:bold;font-size:9.96000004px;font-family:Arial;-inkscape-font-specification:Arial-BoldMT;writing-mode:lr-tb;fill:#000000;fill-opacity:1;fill-rule:nonzero;stroke:none"
           id="text394"><tspan
             x="0"
             y="0"
             id="tspan392">–</tspan></text>
</g></g><g
       id="g396"><g
         id="g398"
         clip-path="url(#clipPath402)"><text
           transform="matrix(1,0,0,-1,425.35,725.04)"
           style="font-variant:normal;font-weight:bold;font-size:9.96000004px;font-family:Arial;-inkscape-font-specification:Arial-BoldMT;writing-mode:lr-tb;fill:#000000;fill-opacity:1;fill-rule:nonzero;stroke:none"
           id="text406"><tspan
             x="0 8.5058403 14.0436 17.86824 20.736719 26.274481 31.7724 37.310162 42.808079"
             y="0"
             sodipodi:role="line"
             id="tspan404">Mar 2022)</tspan></text>
</g></g><g
       id="g408"><g
         id="g410"
         clip-path="url(#clipPath414)"><text
           transform="matrix(1,0,0,-1,57.6,713.5)"
           style="font-variant:normal;font-weight:normal;font-size:9.96000004px;font-family:Arial;-inkscape-font-specification:ArialMT;writing-mode:lr-tb;fill:#000000;fill-opacity:1;fill-rule:nonzero;stroke:none"
           id="text418"><tspan
             x="0 8.5357199 10.69704 12.85836 15.01968 17.181 22.71876 28.256519 31.13496 36.672722 42.21048 45.576962 48.923519 54.461281 56.622601 61.672321 64.540802 70.07856 75.616318 78.982803 81.85128 87.389038 92.926804"
             y="0"
             sodipodi:role="line"
             id="tspan416">million barrels per day</tspan></text>
</g></g><g
       id="g420"><g
         id="g422"
         clip-path="url(#clipPath426)"><text
           transform="matrix(1,0,0,-1,341.64,588.84)"
           style="font-variant:normal;font-weight:bold;font-size:9px;font-family:Arial;-inkscape-font-specification:Arial-BoldMT;writing-mode:lr-tb;fill:#bd732a;fill-opacity:1;fill-rule:nonzero;stroke:none"
           id="text430"><tspan
             x="0 5.4990001 8.0279999 13.527 18.576 21.077999 23.607 29.106001"
             y="0"
             sodipodi:role="line"
             id="tspan428">pipeline</tspan></text>
</g></g><g
       id="g432"><g
         id="g434"
         clip-path="url(#clipPath438)"><text
           transform="matrix(1,0,0,-1,341.64,557.76)"
           style="font-variant:normal;font-weight:bold;font-size:9px;font-family:Arial;-inkscape-font-specification:Arial-BoldMT;writing-mode:lr-tb;fill:#e1ab76;fill-opacity:1;fill-rule:nonzero;stroke:none"
           id="text442"><tspan
             x="0 2.997 8.0279999 13.527 18.576 23.607"
             y="0"
             sodipodi:role="line"
             id="tspan440">tanker</tspan></text>
</g></g><g
       id="g444"><g
         id="g446"
         clip-path="url(#clipPath450)"><text
           transform="matrix(1,0,0,-1,371.16,557.76)"
           style="font-variant:normal;font-weight:bold;font-size:9px;font-family:Arial;-inkscape-font-specification:Arial-BoldMT;writing-mode:lr-tb;fill:#e1ab76;fill-opacity:1;fill-rule:nonzero;stroke:none"
           id="text454"><tspan
             x="0 5.0310001 10.53 16.065001 18.468 23.966999 29.016001 32.516998 38.015999"
             y="0"
             sodipodi:role="line"
             id="tspan452">and barge</tspan></text>
</g></g><g
       id="g456"><g
         id="g458"
         clip-path="url(#clipPath462)"><text
           transform="matrix(1,0,0,-1,132.36,651.65)"
           style="font-variant:normal;font-weight:bold;font-size:9px;font-family:Arial;-inkscape-font-specification:Arial-BoldMT;writing-mode:lr-tb;fill:#5d9732;fill-opacity:1;fill-rule:nonzero;stroke:none"
           id="text466"><tspan
             x="0 5.4990001 8.0279999 13.527 18.576 21.077999 23.607 29.106001"
             y="0"
             sodipodi:role="line"
             id="tspan464">pipeline</tspan></text>
</g></g><g
       id="g468"><g
         id="g470"
         clip-path="url(#clipPath474)"><text
           transform="matrix(1,0,0,-1,132.36,579.14)"
           style="font-variant:normal;font-weight:bold;font-size:9px;font-family:Arial;-inkscape-font-specification:Arial-BoldMT;writing-mode:lr-tb;fill:#9bd174;fill-opacity:1;fill-rule:nonzero;stroke:none"
           id="text478"><tspan
             x="0 2.997 8.0279999 13.527 18.576 23.607"
             y="0"
             sodipodi:role="line"
             id="tspan476">tanker</tspan></text>
</g></g><g
       id="g480"><g
         id="g482"
         clip-path="url(#clipPath486)"><text
           transform="matrix(1,0,0,-1,161.88,579.14)"
           style="font-variant:normal;font-weight:bold;font-size:9px;font-family:Arial;-inkscape-font-specification:Arial-BoldMT;writing-mode:lr-tb;fill:#9bd174;fill-opacity:1;fill-rule:nonzero;stroke:none"
           id="text490"><tspan
             x="0 5.0310001 10.53 16.065001 18.468 23.966999 29.016001 32.516998 38.015999"
             y="0"
             sodipodi:role="line"
             id="tspan488">and barge</tspan></text>
</g></g><g
       id="g512"
       transform="matrix(0.75000002,0,0,-0.75000002,463.02708,716.42888)"><path
         style="fill:#455560;stroke-width:0.27698913"
         inkscape:connector-curvature="0"
         id="path1537"
         d="m 3.6839501,11.98809 c 0.4154837,-0.470881 0.941763,-0.692473 1.6065369,-0.692473 0.637075,0 1.1633544,0.221592 1.5788384,0.664774 0.415483,0.443183 0.637075,1.02486 0.637075,1.772731 v 0.166193 H 3.0191762 c 0.027699,-0.830967 0.2769891,-1.468042 0.6647739,-1.911225 m 5.1519973,5.678277 c -0.470881,0.470882 -0.830967,0.803269 -1.135655,0.969462 -0.387785,0.221592 -0.858666,0.332387 -1.3849456,0.332387 -0.5816772,0 -1.1356554,-0.193892 -1.6619348,-0.581677 C 4.1271327,17.998754 3.711649,17.472475 3.4346599,16.780002 3.1576707,16.087529 3.0191762,15.31196 3.0191762,14.370197 v -0.110796 h 6.0937612 v -0.166193 c 0,-0.914065 -0.360086,-1.689634 -1.080258,-2.326709 -0.720172,-0.664774 -1.5511391,-0.969462 -2.5206011,-0.969462 -1.1633543,0 -2.1605152,0.443183 -2.9637836,1.301849 -0.8032685,0.858666 -1.1910533,1.938924 -1.1910533,3.213074 0,1.246451 0.4154837,2.299009 1.27415,3.129977 0.8309674,0.830967 1.911225,1.218752 3.2130739,1.218752 0.7201717,0 1.3572471,-0.138495 1.8835261,-0.415484 0.526279,-0.276989 1.02486,-0.74787 1.52344,-1.384945 v 0 z"
         class="st0" /><path
         style="fill:#455560;stroke-width:0.27698913"
         inkscape:connector-curvature="0"
         id="path1539"
         d="m 20.164803,17.694066 c -0.138495,0.304688 -0.387785,0.553978 -0.747871,0.747871 -0.332387,0.193892 -0.664774,0.304688 -0.997161,0.304688 -0.332387,0 -0.637075,-0.138495 -0.886365,-0.443183 -0.24929,-0.304688 -0.387785,-0.664774 -0.387785,-1.080257 0,-0.470882 0.110796,-0.858667 0.360086,-1.135656 0.221591,-0.276989 0.77557,-0.553978 1.606537,-0.858666 0.443183,-0.166194 0.803269,-0.276989 1.02486,-0.387785 v 2.852988 z m 2.769891,0.332387 c -0.110796,0.304688 -0.443183,0.720172 -0.692473,0.720172 -0.193892,0 -0.304688,-0.0831 -0.360086,-0.276989 -0.0554,-0.193893 -0.110795,-0.52628 -0.110795,-1.02486 v -3.57316 c 0,-0.969462 -0.276989,-1.717332 -0.830968,-2.243612 -0.553978,-0.553978 -1.27415,-0.803268 -2.188214,-0.803268 -0.74787,0 -1.412644,0.221591 -1.994321,0.692473 -0.553979,0.443182 -0.914065,1.052558 -1.080258,1.800429 l 0.415484,0.166193 c 0.166193,-0.553978 0.443182,-0.99716 0.830967,-1.301848 0.387785,-0.332387 0.858666,-0.470882 1.384946,-0.470882 0.581677,0 1.024859,0.193892 1.357246,0.553978 0.332387,0.360086 0.498581,0.858667 0.498581,1.468043 v 0.609376 c -0.276989,0.166193 -0.803269,0.332387 -1.578838,0.553978 -1.246451,0.332387 -2.04972,0.720172 -2.465203,1.080258 -0.415484,0.387784 -0.609377,0.858666 -0.609377,1.440343 0,0.609376 0.221592,1.135655 0.692473,1.578838 0.470882,0.443183 1.02486,0.664774 1.689634,0.664774 0.443183,0 0.803268,-0.0831 1.135655,-0.24929 0.332387,-0.166194 0.692473,-0.470882 1.107957,-0.941763 0.24929,0.803268 0.720172,1.191053 1.412644,1.191053 0.470882,0 0.858667,-0.166193 1.135656,-0.470882 0.24929,-0.276989 0.415484,-0.609376 0.470881,-1.052558 z"
         class="st0" /><path
         style="fill:#455560;stroke-width:0.27698913"
         inkscape:connector-curvature="0"
         id="path1541"
         d="m 13.489365,18.746625 c -0.193893,-0.166194 -0.304688,-0.470882 -0.304688,-0.914064 v -7.090922 h -0.52628 v 0.0277 c -0.49858,0.221591 -2.6590946,0.276989 -2.6590946,0.276989 v 0.387785 c 0.6924726,0 1.1356546,0.0831 1.3018486,0.24929 0.166193,0.166194 0.276989,0.498581 0.276989,0.997161 v 5.151998 c 0,0.470881 -0.0831,0.775569 -0.276989,0.941763 -0.193893,0.138494 -0.609376,0.221591 -1.3018486,0.221591 v 0.387785 h 4.5703196 v -0.387785 c -0.526279,0 -0.886365,-0.0831 -1.080257,-0.24929"
         class="st0" /><path
         style="fill:#6cb33f;stroke-width:0.27698913"
         inkscape:connector-curvature="0"
         id="path1543"
         d="m 4.1271327,9.4120907 c 0.027699,-0.0277 0.083097,-0.0831 0.1661935,-0.166193 2.4929022,-2.409806 5.2350942,-4.404127 7.9772868,-5.816772 1.634236,-0.830967 3.213074,-1.412644 4.708815,-1.717333 3.323869,-0.692472 5.401288,0.110796 6.038363,0.637075 0.110795,0.0831 0.166193,0.166194 0.193892,0.249291 -1.938924,-0.193893 -3.960944,-0.0831 -6.066062,0.332387 -3.794751,0.803268 -7.6448996,2.575999 -11.4396503,5.290492 -0.4985804,0.360086 -0.9694619,0.720172 -1.4403435,1.080258 -0.055398,0.0554 -0.1107956,0.0831 -0.1384945,0.110795"
         class="st1" /><path
         style="fill:#ffdd00;stroke-width:0.27698913"
         inkscape:connector-curvature="0"
         id="path1545"
         d="m 3.2961653,9.6059837 c 0.027699,-0.0554 0.083097,-0.166194 0.1938924,-0.276989 0.8309674,-1.191054 2.1051174,-2.908386 3.1022782,-4.09944 2.3544075,-2.769891 4.5980191,-3.600858 5.7059761,-3.82245 0.553978,-0.110795 0.969462,-0.110795 1.135655,-0.110795 0,0 -0.0277,0.0554 -0.110796,0.110795 -1.191053,0.637075 -4.3764276,2.326709 -7.3402112,5.262794 -0.7201717,0.692473 -1.3572467,1.440343 -1.9112249,2.049719 -0.2215913,0.249291 -0.3877848,0.443183 -0.5816772,0.637075 -0.055398,0.138495 -0.1384946,0.193893 -0.1938924,0.249291"
         class="st2" /><path
         style="fill:#0081c6;stroke-width:0.27698913"
         inkscape:connector-curvature="0"
         id="path1547"
         d="m 24.652027,15.921336 c 0,-0.110796 0.0277,-0.276989 0.0831,-0.443183 0.720172,-2.132816 0.664774,-4.127138 -0.166193,-5.7613744 -1.717333,-3.3792669 -5.844471,-4.7365139 -11.079565,-3.6562559 -2.409806,0.49858 -4.9304066,1.468042 -7.4787062,2.908386 -0.1384946,0.0831 -0.2769892,0.166193 -0.4154837,0.24929 -0.1384946,0.0831 -0.2215913,0.138494 -0.3046881,0.166193 0.055398,-0.0554 0.1384946,-0.110795 0.2769891,-0.193892 0.7201718,-0.49858 1.4957413,-0.997161 2.2713113,-1.412645 2.2159126,-1.218752 4.5703196,-2.132816 6.8139316,-2.603697 5.262794,-1.080258 9.528426,0.166193 11.079565,3.268471 0.52628,1.052559 0.720172,2.2436123 0.581677,3.5454613 -0.166193,1.495741 -0.692472,2.79759 -1.661934,3.933246"
         class="st3" /><path
         style="fill:#455560;stroke-width:0.27698913"
         inkscape:connector-curvature="0"
         id="path1549"
         d="m 13.129279,8.8027147 c 0,0.498581 -0.387785,0.8863649 -0.886365,0.8863649 -0.498581,0 -0.886365,-0.3877839 -0.886365,-0.8863649 0,-0.49858 0.415483,-0.886365 0.886365,-0.886365 0.470881,-0.0277 0.886365,0.387785 0.886365,0.886365"
         class="st0" /></g></g><style
     id="style1535"
     type="text/css">
	.st0{fill:#455560;}
	.st1{fill:#6CB33F;}
	.st2{fill:#FFDD00;}
	.st3{fill:#0081C6;}
</style></svg>